<mxfile host="app.diagrams.net" modified="2020-08-27T09:51:18.026Z" agent="5.0 (Windows)" etag="4IDqGNdmGNRSES8bdG28" version="13.6.5" type="github">
  <diagram id="MUMl1AOEiHsQtTnx1c6c" name="Page-1">
    <mxGraphModel dx="1038" dy="547" grid="1" gridSize="10" guides="1" tooltips="1" connect="1" arrows="1" fold="1" page="1" pageScale="1" pageWidth="1169" pageHeight="827" math="0" shadow="0">
      <root>
        <mxCell id="0" />
        <mxCell id="1" parent="0" />
        <mxCell id="5zjQEvkOS0VVOXx_LxIS-1" value="HR - Staff Training" style="swimlane;html=1;childLayout=stackLayout;resizeParent=1;resizeParentMax=0;horizontal=1;startSize=20;horizontalStack=0;" vertex="1" parent="1">
          <mxGeometry x="50" y="91" width="970" height="730" as="geometry" />
        </mxCell>
        <mxCell id="5zjQEvkOS0VVOXx_LxIS-2" value="HRAM" style="swimlane;html=1;startSize=20;horizontal=0;" vertex="1" parent="5zjQEvkOS0VVOXx_LxIS-1">
          <mxGeometry y="20" width="970" height="130" as="geometry" />
        </mxCell>
        <mxCell id="5zjQEvkOS0VVOXx_LxIS-8" value="Start" style="rounded=1;whiteSpace=wrap;html=1;" vertex="1" parent="5zjQEvkOS0VVOXx_LxIS-2">
          <mxGeometry x="80" y="10" width="90" height="40" as="geometry" />
        </mxCell>
        <mxCell id="5zjQEvkOS0VVOXx_LxIS-23" value="Communicate outcome through HODs" style="whiteSpace=wrap;html=1;" vertex="1" parent="5zjQEvkOS0VVOXx_LxIS-2">
          <mxGeometry x="425" y="41" width="120" height="60" as="geometry" />
        </mxCell>
        <mxCell id="5zjQEvkOS0VVOXx_LxIS-12" value="Compile a training report" style="rounded=0;whiteSpace=wrap;html=1;" vertex="1" parent="5zjQEvkOS0VVOXx_LxIS-2">
          <mxGeometry x="229" y="50" width="120" height="50" as="geometry" />
        </mxCell>
        <mxCell id="5zjQEvkOS0VVOXx_LxIS-9" value="Initiate training needs assessment" style="rounded=0;whiteSpace=wrap;html=1;" vertex="1" parent="5zjQEvkOS0VVOXx_LxIS-2">
          <mxGeometry x="65" y="70" width="120" height="50" as="geometry" />
        </mxCell>
        <mxCell id="5zjQEvkOS0VVOXx_LxIS-36" value="Update staff record" style="whiteSpace=wrap;html=1;" vertex="1" parent="5zjQEvkOS0VVOXx_LxIS-2">
          <mxGeometry x="700" y="40" width="120" height="60" as="geometry" />
        </mxCell>
        <mxCell id="5zjQEvkOS0VVOXx_LxIS-38" value="End" style="rounded=1;whiteSpace=wrap;html=1;" vertex="1" parent="5zjQEvkOS0VVOXx_LxIS-2">
          <mxGeometry x="880" y="50" width="70" height="40" as="geometry" />
        </mxCell>
        <mxCell id="5zjQEvkOS0VVOXx_LxIS-39" value="" style="endArrow=classic;html=1;exitX=1;exitY=0.5;exitDx=0;exitDy=0;entryX=0;entryY=0.5;entryDx=0;entryDy=0;" edge="1" parent="5zjQEvkOS0VVOXx_LxIS-2" source="5zjQEvkOS0VVOXx_LxIS-36" target="5zjQEvkOS0VVOXx_LxIS-38">
          <mxGeometry width="50" height="50" relative="1" as="geometry">
            <mxPoint x="610" y="249" as="sourcePoint" />
            <mxPoint x="660" y="199" as="targetPoint" />
          </mxGeometry>
        </mxCell>
        <mxCell id="5zjQEvkOS0VVOXx_LxIS-3" value="Staff" style="swimlane;html=1;startSize=20;horizontal=0;" vertex="1" parent="5zjQEvkOS0VVOXx_LxIS-1">
          <mxGeometry y="150" width="970" height="140" as="geometry" />
        </mxCell>
        <mxCell id="5zjQEvkOS0VVOXx_LxIS-32" value="File training report" style="whiteSpace=wrap;html=1;" vertex="1" parent="5zjQEvkOS0VVOXx_LxIS-3">
          <mxGeometry x="700" y="50" width="120" height="60" as="geometry" />
        </mxCell>
        <mxCell id="5zjQEvkOS0VVOXx_LxIS-28" value="Requisition for training facilitation" style="whiteSpace=wrap;html=1;" vertex="1" parent="5zjQEvkOS0VVOXx_LxIS-3">
          <mxGeometry x="560" y="50" width="120" height="60" as="geometry" />
        </mxCell>
        <mxCell id="5zjQEvkOS0VVOXx_LxIS-10" value="Staff and HODs compile the TNA" style="rounded=0;whiteSpace=wrap;html=1;" vertex="1" parent="5zjQEvkOS0VVOXx_LxIS-3">
          <mxGeometry x="65" y="99" width="120" height="50" as="geometry" />
        </mxCell>
        <mxCell id="5zjQEvkOS0VVOXx_LxIS-27" value="yes" style="text;html=1;strokeColor=none;fillColor=none;align=center;verticalAlign=middle;whiteSpace=wrap;rounded=0;" vertex="1" parent="5zjQEvkOS0VVOXx_LxIS-3">
          <mxGeometry x="480" y="90" width="40" height="20" as="geometry" />
        </mxCell>
        <mxCell id="5zjQEvkOS0VVOXx_LxIS-4" value="HOD" style="swimlane;html=1;startSize=20;horizontal=0;" vertex="1" parent="5zjQEvkOS0VVOXx_LxIS-1">
          <mxGeometry y="290" width="970" height="120" as="geometry" />
        </mxCell>
        <mxCell id="5zjQEvkOS0VVOXx_LxIS-34" value="HOD Input" style="shape=parallelogram;perimeter=parallelogramPerimeter;whiteSpace=wrap;html=1;fixedSize=1;" vertex="1" parent="5zjQEvkOS0VVOXx_LxIS-4">
          <mxGeometry x="60" y="47" width="120" height="60" as="geometry" />
        </mxCell>
        <mxCell id="5zjQEvkOS0VVOXx_LxIS-5" value="CEO" style="swimlane;html=1;startSize=20;horizontal=0;" vertex="1" parent="5zjQEvkOS0VVOXx_LxIS-1">
          <mxGeometry y="410" width="970" height="120" as="geometry" />
        </mxCell>
        <mxCell id="5zjQEvkOS0VVOXx_LxIS-21" value="approved by CEO?" style="rhombus;whiteSpace=wrap;html=1;" vertex="1" parent="5zjQEvkOS0VVOXx_LxIS-5">
          <mxGeometry x="445" y="10" width="80" height="80" as="geometry" />
        </mxCell>
        <mxCell id="5zjQEvkOS0VVOXx_LxIS-6" value="HRAC" style="swimlane;html=1;startSize=20;horizontal=0;" vertex="1" parent="5zjQEvkOS0VVOXx_LxIS-1">
          <mxGeometry y="530" width="970" height="120" as="geometry" />
        </mxCell>
        <mxCell id="5zjQEvkOS0VVOXx_LxIS-14" value="report approved?" style="rhombus;whiteSpace=wrap;html=1;rounded=0;" vertex="1" parent="5zjQEvkOS0VVOXx_LxIS-6">
          <mxGeometry x="249" y="20" width="80" height="80" as="geometry" />
        </mxCell>
        <mxCell id="5zjQEvkOS0VVOXx_LxIS-16" value="Training report" style="shape=document;whiteSpace=wrap;html=1;boundedLbl=1;" vertex="1" parent="5zjQEvkOS0VVOXx_LxIS-6">
          <mxGeometry x="80" y="20" width="120" height="80" as="geometry" />
        </mxCell>
        <mxCell id="5zjQEvkOS0VVOXx_LxIS-18" value="" style="edgeStyle=orthogonalEdgeStyle;rounded=0;orthogonalLoop=1;jettySize=auto;html=1;entryX=0;entryY=0.5;entryDx=0;entryDy=0;" edge="1" parent="5zjQEvkOS0VVOXx_LxIS-6" source="5zjQEvkOS0VVOXx_LxIS-16" target="5zjQEvkOS0VVOXx_LxIS-14">
          <mxGeometry relative="1" as="geometry">
            <mxPoint x="290" y="60" as="targetPoint" />
          </mxGeometry>
        </mxCell>
        <mxCell id="5zjQEvkOS0VVOXx_LxIS-22" value="yes" style="text;html=1;strokeColor=none;fillColor=none;align=center;verticalAlign=middle;whiteSpace=wrap;rounded=0;" vertex="1" parent="5zjQEvkOS0VVOXx_LxIS-6">
          <mxGeometry x="390" y="40" width="40" height="20" as="geometry" />
        </mxCell>
        <mxCell id="5zjQEvkOS0VVOXx_LxIS-7" value="Finance/Procument" style="swimlane;html=1;startSize=20;horizontal=0;" vertex="1" parent="5zjQEvkOS0VVOXx_LxIS-1">
          <mxGeometry y="650" width="970" height="80" as="geometry" />
        </mxCell>
        <mxCell id="5zjQEvkOS0VVOXx_LxIS-30" value="Make payments" style="whiteSpace=wrap;html=1;" vertex="1" parent="5zjQEvkOS0VVOXx_LxIS-7">
          <mxGeometry x="560" y="13" width="120" height="60" as="geometry" />
        </mxCell>
        <mxCell id="5zjQEvkOS0VVOXx_LxIS-11" value="" style="edgeStyle=orthogonalEdgeStyle;rounded=0;orthogonalLoop=1;jettySize=auto;html=1;" edge="1" parent="5zjQEvkOS0VVOXx_LxIS-1" source="5zjQEvkOS0VVOXx_LxIS-9" target="5zjQEvkOS0VVOXx_LxIS-10">
          <mxGeometry relative="1" as="geometry" />
        </mxCell>
        <mxCell id="5zjQEvkOS0VVOXx_LxIS-13" value="" style="edgeStyle=orthogonalEdgeStyle;rounded=0;orthogonalLoop=1;jettySize=auto;html=1;" edge="1" parent="5zjQEvkOS0VVOXx_LxIS-1" source="5zjQEvkOS0VVOXx_LxIS-10" target="5zjQEvkOS0VVOXx_LxIS-12">
          <mxGeometry relative="1" as="geometry" />
        </mxCell>
        <mxCell id="5zjQEvkOS0VVOXx_LxIS-15" value="" style="edgeStyle=orthogonalEdgeStyle;rounded=0;orthogonalLoop=1;jettySize=auto;html=1;exitX=1;exitY=0.5;exitDx=0;exitDy=0;" edge="1" parent="5zjQEvkOS0VVOXx_LxIS-1" source="5zjQEvkOS0VVOXx_LxIS-12" target="5zjQEvkOS0VVOXx_LxIS-14">
          <mxGeometry relative="1" as="geometry">
            <Array as="points">
              <mxPoint x="369" y="95" />
              <mxPoint x="369" y="540" />
              <mxPoint x="289" y="540" />
            </Array>
          </mxGeometry>
        </mxCell>
        <mxCell id="5zjQEvkOS0VVOXx_LxIS-20" value="" style="edgeStyle=orthogonalEdgeStyle;rounded=0;orthogonalLoop=1;jettySize=auto;html=1;" edge="1" parent="5zjQEvkOS0VVOXx_LxIS-1" source="5zjQEvkOS0VVOXx_LxIS-14">
          <mxGeometry relative="1" as="geometry">
            <mxPoint x="485" y="500" as="targetPoint" />
          </mxGeometry>
        </mxCell>
        <mxCell id="5zjQEvkOS0VVOXx_LxIS-24" value="" style="edgeStyle=orthogonalEdgeStyle;rounded=0;orthogonalLoop=1;jettySize=auto;html=1;" edge="1" parent="5zjQEvkOS0VVOXx_LxIS-1" source="5zjQEvkOS0VVOXx_LxIS-21" target="5zjQEvkOS0VVOXx_LxIS-23">
          <mxGeometry relative="1" as="geometry" />
        </mxCell>
        <mxCell id="5zjQEvkOS0VVOXx_LxIS-29" value="" style="edgeStyle=orthogonalEdgeStyle;rounded=0;orthogonalLoop=1;jettySize=auto;html=1;" edge="1" parent="5zjQEvkOS0VVOXx_LxIS-1" source="5zjQEvkOS0VVOXx_LxIS-23" target="5zjQEvkOS0VVOXx_LxIS-28">
          <mxGeometry relative="1" as="geometry" />
        </mxCell>
        <mxCell id="5zjQEvkOS0VVOXx_LxIS-31" value="" style="edgeStyle=orthogonalEdgeStyle;rounded=0;orthogonalLoop=1;jettySize=auto;html=1;" edge="1" parent="5zjQEvkOS0VVOXx_LxIS-1" source="5zjQEvkOS0VVOXx_LxIS-28" target="5zjQEvkOS0VVOXx_LxIS-30">
          <mxGeometry relative="1" as="geometry" />
        </mxCell>
        <mxCell id="5zjQEvkOS0VVOXx_LxIS-33" value="" style="edgeStyle=orthogonalEdgeStyle;rounded=0;orthogonalLoop=1;jettySize=auto;html=1;" edge="1" parent="5zjQEvkOS0VVOXx_LxIS-1" source="5zjQEvkOS0VVOXx_LxIS-30" target="5zjQEvkOS0VVOXx_LxIS-32">
          <mxGeometry relative="1" as="geometry" />
        </mxCell>
        <mxCell id="5zjQEvkOS0VVOXx_LxIS-37" value="" style="edgeStyle=orthogonalEdgeStyle;rounded=0;orthogonalLoop=1;jettySize=auto;html=1;" edge="1" parent="5zjQEvkOS0VVOXx_LxIS-1" source="5zjQEvkOS0VVOXx_LxIS-32" target="5zjQEvkOS0VVOXx_LxIS-36">
          <mxGeometry relative="1" as="geometry" />
        </mxCell>
        <mxCell id="5zjQEvkOS0VVOXx_LxIS-35" value="" style="endArrow=classic;html=1;exitX=0.5;exitY=0;exitDx=0;exitDy=0;" edge="1" parent="1" source="5zjQEvkOS0VVOXx_LxIS-34">
          <mxGeometry width="50" height="50" relative="1" as="geometry">
            <mxPoint x="330" y="410" as="sourcePoint" />
            <mxPoint x="170" y="390" as="targetPoint" />
          </mxGeometry>
        </mxCell>
      </root>
    </mxGraphModel>
  </diagram>
</mxfile>
